<?xml version="1.0" encoding="UTF-8" standalone="no"?>
<svg
   width="375"
   height="502"
   viewBox="0 0 375 502"
   fill="none"
   version="1.1"
   id="svg43"
   sodipodi:docname="BG.svg"
   inkscape:version="1.3.2 (091e20ef0f, 2023-11-25)"
   xmlns:inkscape="http://www.inkscape.org/namespaces/inkscape"
   xmlns:sodipodi="http://sodipodi.sourceforge.net/DTD/sodipodi-0.dtd"
   xmlns="http://www.w3.org/2000/svg"
   xmlns:svg="http://www.w3.org/2000/svg">
  <sodipodi:namedview
     id="namedview43"
     pagecolor="#ffffff"
     bordercolor="#000000"
     borderopacity="0.25"
     inkscape:showpageshadow="2"
     inkscape:pageopacity="0.0"
     inkscape:pagecheckerboard="0"
     inkscape:deskcolor="#d1d1d1"
     inkscape:zoom="1.6354582"
     inkscape:cx="187.71498"
     inkscape:cy="348.83191"
     inkscape:window-width="1920"
     inkscape:window-height="1017"
     inkscape:window-x="-8"
     inkscape:window-y="-8"
     inkscape:window-maximized="1"
     inkscape:current-layer="svg43" />
  <rect
     width="375"
     height="502"
     fill="url(#paint0_linear_409_3305)"
     id="rect1"
     style="fill:#f6bebe;fill-opacity:1" />
  <rect
     x="327"
     y="18"
     width="32"
     height="32"
     rx="8"
     fill="white"
     fill-opacity="0.8"
     id="rect2" />
  <path
     d="M340 43H346M343 25C339.686 25 337 27.6863 337 31C337 32.2145 337.361 33.3447 337.981 34.2893C338.935 35.7418 339.412 36.4676 339.474 36.5761C340.024 37.541 339.923 37.2007 339.992 38.3096C340 38.4342 340 38.6229 340 39C340 39.5523 340.448 40 341 40L345 40C345.552 40 346 39.5523 346 39C346 38.6229 346 38.4342 346.008 38.3096C346.077 37.2007 345.975 37.541 346.526 36.5761C346.588 36.4676 347.065 35.7418 348.019 34.2893C348.639 33.3447 349 32.2145 349 31C349 27.6863 346.314 25 343 25Z"
     stroke="#F17575"
     stroke-width="2"
     stroke-linecap="round"
     stroke-linejoin="round"
     id="path2" />
  <rect
     x="34"
     y="312.5"
     width="51"
     height="51"
     rx="11.5"
     fill="white"
     id="rect4" />
  <rect
     x="98"
     y="312.5"
     width="51"
     height="51"
     rx="11.5"
     fill="white"
     id="rect6" />
  <rect
     x="162"
     y="312.5"
     width="51"
     height="51"
     rx="11.5"
     fill="white"
     id="rect8" />
  <rect
     x="226"
     y="312.5"
     width="51"
     height="51"
     rx="11.5"
     fill="white"
     id="rect10" />
  <rect
     x="290"
     y="312.5"
     width="51"
     height="51"
     rx="11.5"
     fill="white"
     id="rect12" />
  <rect
     x="30"
     y="404.5"
     width="39"
     height="39"
     rx="7.5"
     fill="#D79494"
     fill-opacity="0.26"
     id="rect14" />
  <rect
     x="76"
     y="404.5"
     width="39"
     height="39"
     rx="7.5"
     fill="#D79494"
     fill-opacity="0.26"
     id="rect16" />
  <rect
     x="122"
     y="404.5"
     width="39"
     height="39"
     rx="7.5"
     fill="#D79494"
     fill-opacity="0.26"
     id="rect18" />
  <rect
     x="168"
     y="404.5"
     width="39"
     height="39"
     rx="7.5"
     fill="#D79494"
     fill-opacity="0.26"
     id="rect20" />
  <rect
     x="214"
     y="404.5"
     width="39"
     height="39"
     rx="7.5"
     fill="#D79494"
     fill-opacity="0.26"
     id="rect22" />
  <rect
     x="260"
     y="404.5"
     width="39"
     height="39"
     rx="7.5"
     fill="#D79494"
     fill-opacity="0.26"
     id="rect24" />
  <rect
     x="306"
     y="404.5"
     width="39"
     height="39"
     rx="7.5"
     fill="#D79494"
     fill-opacity="0.26"
     id="rect26" />
  <rect
     x="30"
     y="450.5"
     width="39"
     height="39"
     rx="7.5"
     fill="white"
     fill-opacity="0.8"
     id="rect28" />
  <rect
     x="30"
     y="450.5"
     width="39"
     height="39"
     rx="7.5"
     stroke="#F0F0F0"
     id="rect29" />
  <path
     d="M43.5 470L47.7426 474.243L56.227 465.757"
     stroke="#222222"
     stroke-width="1.5"
     stroke-linecap="round"
     stroke-linejoin="round"
     id="path29" />
  <rect
     x="76"
     y="450.5"
     width="39"
     height="39"
     rx="7.5"
     fill="#D79494"
     fill-opacity="0.26"
     id="rect30" />
  <rect
     x="122"
     y="450.5"
     width="39"
     height="39"
     rx="7.5"
     fill="#D79494"
     fill-opacity="0.26"
     id="rect32" />
  <rect
     x="168"
     y="450.5"
     width="39"
     height="39"
     rx="7.5"
     fill="#D79494"
     fill-opacity="0.26"
     id="rect34" />
  <rect
     x="214"
     y="450.5"
     width="39"
     height="39"
     rx="7.5"
     fill="#D79494"
     fill-opacity="0.26"
     id="rect36" />
  <rect
     x="260"
     y="450.5"
     width="39"
     height="39"
     rx="7.5"
     fill="#D79494"
     fill-opacity="0.26"
     id="rect38" />
  <rect
     x="306"
     y="450.5"
     width="39"
     height="39"
     rx="7.5"
     fill="white"
     fill-opacity="0.8"
     id="rect40" />
  <rect
     x="306"
     y="450.5"
     width="39"
     height="39"
     rx="7.5"
     stroke="#F0F0F0"
     id="rect41" />
  <path
     d="M317.711 467.895L320.273 465.019C320.66 464.584 320.854 464.366 321.092 464.21C321.302 464.071 321.537 463.969 321.785 463.906C322.065 463.836 322.367 463.836 322.972 463.836H330.987C332.216 463.836 332.832 463.836 333.301 464.06C333.715 464.257 334.05 464.571 334.261 464.957C334.5 465.397 334.5 465.973 334.5 467.124V472.877C334.5 474.028 334.5 474.603 334.261 475.042C334.05 475.429 333.715 475.744 333.301 475.941C332.832 476.164 332.218 476.164 330.99 476.164H322.972C322.367 476.164 322.065 476.164 321.785 476.094C321.537 476.031 321.302 475.928 321.092 475.79C320.854 475.633 320.66 475.416 320.273 474.982L317.711 472.105C317.044 471.356 316.712 470.982 316.584 470.564C316.472 470.195 316.472 469.804 316.584 469.436C316.712 469.018 317.044 468.644 317.711 467.895Z"
     stroke="#222222"
     stroke-width="1.5"
     stroke-linecap="round"
     stroke-linejoin="round"
     id="path41" />
  <path
     d="M330.155 472.327L327.827 470M327.827 470L325.5 467.673M327.827 470L330.155 467.673M327.827 470L325.5 472.327"
     stroke="#222222"
     stroke-width="1.4"
     stroke-linecap="round"
     stroke-linejoin="round"
     id="path42" />
  <defs
     id="defs43">
    <linearGradient
       id="paint0_linear_409_3305"
       x1="0"
       y1="0"
       x2="299.95"
       y2="543.425"
       gradientUnits="userSpaceOnUse">
      <stop
         stop-color="#F69D9D"
         id="stop42" />
      <stop
         offset="1"
         stop-color="#F6BEBE"
         id="stop43" />
    </linearGradient>
  </defs>
</svg>
