<?xml version="1.0" encoding="UTF-8" standalone="no"?>
<svg
   width="375"
   height="502"
   viewBox="0 0 375 502"
   fill="none"
   version="1.1"
   id="svg43"
   sodipodi:docname="BG2.svg"
   inkscape:version="1.3.2 (091e20ef0f, 2023-11-25)"
   xmlns:inkscape="http://www.inkscape.org/namespaces/inkscape"
   xmlns:sodipodi="http://sodipodi.sourceforge.net/DTD/sodipodi-0.dtd"
   xmlns="http://www.w3.org/2000/svg"
   xmlns:svg="http://www.w3.org/2000/svg">
  <sodipodi:namedview
     id="namedview43"
     pagecolor="#ffffff"
     bordercolor="#000000"
     borderopacity="0.25"
     inkscape:showpageshadow="2"
     inkscape:pageopacity="0.0"
     inkscape:pagecheckerboard="0"
     inkscape:deskcolor="#d1d1d1"
     inkscape:zoom="1.6354582"
     inkscape:cx="188.32643"
     inkscape:cy="256.50304"
     inkscape:window-width="1920"
     inkscape:window-height="1017"
     inkscape:window-x="-8"
     inkscape:window-y="-8"
     inkscape:window-maximized="1"
     inkscape:current-layer="svg43" />
  <path
     width="375"
     height="193.82948"
     fill="url(#paint0_linear_409_3305)"
     id="rect1"
     style="fill:#f6bebe;fill-opacity:1;stroke-width:0.621381"
     x="0"
     y="87.437271"
     mask="url(#mask-powermask-path-effect45)"
     inkscape:path-effect="#path-effect45"
     sodipodi:type="rect"
     d="M 0,87.437271 H 375 V 281.26675 H 0 Z" />
  <path
     d="M65.816 15.9082H71.6949C73.1467 15.9082 74.3219 16.3574 75.2203 17.2559C76.1253 18.1478 76.5777 19.3229 76.5777 20.7812C76.5777 22.2266 76.1122 23.3952 75.1813 24.2871C74.2503 25.179 73.0393 25.625 71.5484 25.625H68.7652V30H65.816V15.9082ZM68.7652 18.3301V23.2324H70.9039C71.7568 23.2324 72.4143 23.0241 72.8766 22.6074C73.3453 22.1842 73.5797 21.5788 73.5797 20.791C73.5797 19.9967 73.3486 19.388 72.8863 18.9648C72.4241 18.5417 71.7665 18.3301 70.9137 18.3301H68.7652ZM82.4375 28.0273C83.0951 28.0273 83.6452 27.8418 84.0879 27.4707C84.5306 27.0996 84.752 26.6406 84.752 26.0938V25.3027L82.5742 25.4395C81.3633 25.5241 80.7578 25.957 80.7578 26.7383C80.7578 27.1354 80.9108 27.4512 81.2168 27.6855C81.5293 27.9134 81.9362 28.0273 82.4375 28.0273ZM81.5 30.166C80.4583 30.166 79.6087 29.8698 78.9512 29.2773C78.3001 28.6849 77.9746 27.9004 77.9746 26.9238C77.9746 25.9538 78.3327 25.1921 79.0488 24.6387C79.7715 24.0788 80.8034 23.7598 82.1445 23.6816L84.752 23.5254V22.6465C84.752 22.1973 84.5957 21.8522 84.2832 21.6113C83.9707 21.3639 83.5215 21.2402 82.9355 21.2402C81.8809 21.2402 81.2331 21.5723 80.9922 22.2363H78.375C78.4661 21.2402 78.9349 20.4525 79.7813 19.873C80.6341 19.2871 81.7376 18.9941 83.0918 18.9941C84.5111 18.9941 85.6081 19.3132 86.3828 19.9512C87.1641 20.5892 87.5547 21.4876 87.5547 22.6465V30H84.8008V28.5938H84.625C84.3451 29.0885 83.9284 29.4759 83.375 29.7559C82.8216 30.0293 82.1966 30.166 81.5 30.166ZM94.352 30.2344C93.7335 30.2344 93.1573 30.166 92.6234 30.0293C92.0896 29.8926 91.598 29.6842 91.1488 29.4043C90.6996 29.1243 90.3318 28.7435 90.0453 28.2617C89.7654 27.7799 89.5994 27.2168 89.5473 26.5723H92.2816C92.3858 27.0345 92.6169 27.3796 92.975 27.6074C93.3396 27.8288 93.7986 27.9395 94.352 27.9395C94.9314 27.9395 95.3904 27.8288 95.7289 27.6074C96.0675 27.3796 96.2367 27.0605 96.2367 26.6504C96.2367 25.8431 95.6117 25.4395 94.3617 25.4395H92.848V23.5254H94.2836C95.3773 23.5254 95.9242 23.1478 95.9242 22.3926C95.9242 22.0475 95.7842 21.7676 95.5043 21.5527C95.2309 21.3314 94.824 21.2207 94.2836 21.2207C93.7628 21.2207 93.3363 21.3314 93.0043 21.5527C92.6788 21.7741 92.4835 22.0866 92.4184 22.4902H89.7328C89.837 21.416 90.2829 20.5664 91.0707 19.9414C91.865 19.3099 92.9327 18.9941 94.2738 18.9941C95.6801 18.9941 96.7673 19.2643 97.5355 19.8047C98.3103 20.3385 98.6977 21.0905 98.6977 22.0605C98.6977 22.5944 98.5479 23.0501 98.2484 23.4277C97.949 23.8053 97.5518 24.0625 97.057 24.1992V24.375C97.7211 24.5443 98.2224 24.8405 98.5609 25.2637C98.906 25.6803 99.0785 26.1816 99.0785 26.7676C99.0785 27.8223 98.6553 28.6654 97.809 29.2969C96.9691 29.9219 95.8168 30.2344 94.352 30.2344ZM108.718 21.4648H104.108V30H101.266V19.2285H108.718V21.4648ZM114.363 28.0273C115.02 28.0273 115.57 27.8418 116.013 27.4707C116.456 27.0996 116.677 26.6406 116.677 26.0938V25.3027L114.499 25.4395C113.288 25.5241 112.683 25.957 112.683 26.7383C112.683 27.1354 112.836 27.4512 113.142 27.6855C113.454 27.9134 113.861 28.0273 114.363 28.0273ZM113.425 30.166C112.383 30.166 111.534 29.8698 110.876 29.2773C110.225 28.6849 109.9 27.9004 109.9 26.9238C109.9 25.9538 110.258 25.1921 110.974 24.6387C111.696 24.0788 112.728 23.7598 114.07 23.6816L116.677 23.5254V22.6465C116.677 22.1973 116.521 21.8522 116.208 21.6113C115.896 21.3639 115.446 21.2402 114.861 21.2402C113.806 21.2402 113.158 21.5723 112.917 22.2363H110.3C110.391 21.2402 110.86 20.4525 111.706 19.873C112.559 19.2871 113.663 18.9941 115.017 18.9941C116.436 18.9941 117.533 19.3132 118.308 19.9512C119.089 20.5892 119.48 21.4876 119.48 22.6465V30H116.726V28.5938H116.55C116.27 29.0885 115.853 29.4759 115.3 29.7559C114.747 30.0293 114.122 30.166 113.425 30.166ZM128.972 27.7637V21.4551H125.691L125.447 24.8242C125.362 26.0221 125.108 26.9434 124.685 27.5879V27.7637H128.972ZM123.504 32.7832H120.906V27.7637H121.736C122.413 27.3861 122.81 26.3411 122.927 24.6289L123.279 19.2285H131.804V27.7637H133.425V32.7832H130.828V30H123.504V32.7832ZM138.895 28.0273C139.552 28.0273 140.102 27.8418 140.545 27.4707C140.988 27.0996 141.209 26.6406 141.209 26.0938V25.3027L139.031 25.4395C137.82 25.5241 137.215 25.957 137.215 26.7383C137.215 27.1354 137.368 27.4512 137.674 27.6855C137.986 27.9134 138.393 28.0273 138.895 28.0273ZM137.957 30.166C136.915 30.166 136.066 29.8698 135.408 29.2773C134.757 28.6849 134.432 27.9004 134.432 26.9238C134.432 25.9538 134.79 25.1921 135.506 24.6387C136.229 24.0788 137.26 23.7598 138.602 23.6816L141.209 23.5254V22.6465C141.209 22.1973 141.053 21.8522 140.74 21.6113C140.428 21.3639 139.979 21.2402 139.393 21.2402C138.338 21.2402 137.69 21.5723 137.449 22.2363H134.832C134.923 21.2402 135.392 20.4525 136.238 19.873C137.091 19.2871 138.195 18.9941 139.549 18.9941C140.968 18.9941 142.065 19.3132 142.84 19.9512C143.621 20.5892 144.012 21.4876 144.012 22.6465V30H141.258V28.5938H141.082C140.802 29.0885 140.385 29.4759 139.832 29.7559C139.279 30.0293 138.654 30.166 137.957 30.166ZM149.393 30H146.6V19.2285H149.393V25.8496H149.569L153.866 19.2285H156.659V30H153.866V23.3008H153.69L149.393 30ZM147.801 14.2188H149.93C149.943 14.7461 150.093 15.179 150.379 15.5176C150.666 15.8496 151.043 16.0156 151.512 16.0156C151.981 16.0156 152.358 15.8496 152.645 15.5176C152.938 15.179 153.091 14.7461 153.104 14.2188H155.233C155.233 15.2279 154.891 16.0514 154.207 16.6895C153.524 17.321 152.625 17.6367 151.512 17.6367C150.399 17.6367 149.5 17.321 148.817 16.6895C148.14 16.0579 147.801 15.2344 147.801 14.2188ZM170.282 19.0527C171.65 19.0527 172.724 19.5443 173.505 20.5273C174.286 21.5104 174.677 22.8711 174.677 24.6094C174.677 26.3411 174.29 27.7018 173.515 28.6914C172.74 29.6745 171.679 30.166 170.331 30.166C169.563 30.166 168.896 30.0065 168.329 29.6875C167.763 29.3685 167.346 28.9225 167.079 28.3496H166.904V33.5742H164.062V19.2285H166.816V20.9961H166.991C167.284 20.3906 167.721 19.9154 168.3 19.5703C168.879 19.2253 169.54 19.0527 170.282 19.0527ZM169.316 27.793C170.084 27.793 170.683 27.513 171.113 26.9531C171.542 26.3867 171.757 25.6055 171.757 24.6094C171.757 23.6198 171.539 22.8451 171.103 22.2852C170.673 21.7188 170.081 21.4355 169.325 21.4355C168.57 21.4355 167.971 21.722 167.529 22.2949C167.092 22.8613 166.874 23.6361 166.874 24.6191C166.874 25.6022 167.092 26.377 167.529 26.9434C167.965 27.5098 168.56 27.793 169.316 27.793ZM181.464 21.1719C180.807 21.1719 180.263 21.3835 179.834 21.8066C179.41 22.2298 179.173 22.7897 179.121 23.4863H183.711C183.678 22.7702 183.46 22.207 183.056 21.7969C182.659 21.3802 182.129 21.1719 181.464 21.1719ZM183.769 26.9336H186.416C186.201 27.9557 185.654 28.763 184.775 29.3555C183.903 29.9414 182.809 30.2344 181.494 30.2344C179.853 30.2344 178.574 29.7461 177.656 28.7695C176.738 27.7865 176.279 26.4193 176.279 24.668C176.279 22.9167 176.741 21.5332 177.666 20.5176C178.59 19.502 179.853 18.9941 181.455 18.9941C183.043 18.9941 184.28 19.4727 185.166 20.4297C186.058 21.3867 186.504 22.7214 186.504 24.4336V25.3027H179.111V25.4492C179.13 26.25 179.358 26.8848 179.795 27.3535C180.237 27.8158 180.83 28.0469 181.572 28.0469C182.132 28.0469 182.601 27.9525 182.978 27.7637C183.356 27.5684 183.619 27.2917 183.769 26.9336ZM193.506 27.9102C194.274 27.9102 194.87 27.6432 195.293 27.1094C195.723 26.569 195.938 25.804 195.938 24.8145C195.938 23.8704 195.723 23.1348 195.293 22.6074C194.87 22.0801 194.274 21.8164 193.506 21.8164C192.738 21.8164 192.139 22.0801 191.709 22.6074C191.286 23.1348 191.074 23.8704 191.074 24.8145C191.074 25.804 191.286 26.569 191.709 27.1094C192.132 27.6432 192.731 27.9102 193.506 27.9102ZM190.352 21.6699H190.527C191.23 20.2962 192.432 19.6094 194.131 19.6094C195.55 19.6094 196.693 20.0716 197.559 20.9961C198.424 21.9206 198.857 23.1673 198.857 24.7363C198.857 26.4355 198.382 27.7767 197.432 28.7598C196.481 29.7428 195.189 30.2344 193.555 30.2344C191.829 30.2344 190.498 29.694 189.561 28.6133C188.623 27.526 188.154 25.9245 188.154 23.8086C188.154 21.0482 188.62 19.0104 189.551 17.6953C190.488 16.3802 191.953 15.6868 193.945 15.6152L195.322 15.5664C195.817 15.5469 196.299 15.5013 196.768 15.4297C197.236 15.3581 197.578 15.2962 197.793 15.2441C198.014 15.1855 198.132 15.1497 198.145 15.1367V17.4316C198.086 17.4642 197.998 17.5033 197.881 17.5488C197.764 17.5944 197.477 17.6595 197.021 17.7441C196.566 17.8223 196.058 17.8711 195.498 17.8906L194.189 17.9297C193.532 17.9557 192.969 18.0534 192.5 18.2227C192.038 18.3854 191.66 18.6328 191.367 18.9648C191.081 19.2904 190.859 19.668 190.703 20.0977C190.547 20.5273 190.43 21.0514 190.352 21.6699ZM201.914 33.916C201.309 33.916 200.948 33.9062 200.83 33.8867V31.6016C200.896 31.6146 201.11 31.6211 201.475 31.6211C202.015 31.6211 202.439 31.5267 202.745 31.3379C203.051 31.1556 203.262 30.8626 203.379 30.459L203.477 30.0684L199.698 19.2285H202.832L205.098 27.3926H205.274L207.539 19.2285H210.547L206.836 30.166C206.381 31.5462 205.782 32.5163 205.039 33.0762C204.304 33.6361 203.262 33.916 201.914 33.916ZM221.407 23.0273H218.751C218.653 22.5 218.419 22.0866 218.048 21.7871C217.683 21.4811 217.205 21.3281 216.612 21.3281C215.844 21.3281 215.251 21.6081 214.835 22.168C214.425 22.7279 214.22 23.5352 214.22 24.5898C214.22 25.6576 214.425 26.4779 214.835 27.0508C215.251 27.6172 215.844 27.9004 216.612 27.9004C217.198 27.9004 217.673 27.7604 218.038 27.4805C218.409 27.2005 218.647 26.7969 218.751 26.2695H221.407C221.29 27.487 220.808 28.4538 219.962 29.1699C219.115 29.8796 217.999 30.2344 216.612 30.2344C214.932 30.2344 213.634 29.7461 212.716 28.7695C211.804 27.7865 211.348 26.3932 211.348 24.5898C211.348 22.7995 211.804 21.4193 212.716 20.4492C213.627 19.4792 214.926 18.9941 216.612 18.9941C218.018 18.9941 219.138 19.3555 219.971 20.0781C220.811 20.8008 221.29 21.7839 221.407 23.0273ZM230.978 30H228.185V19.2285H230.978V25.8496H231.154L235.451 19.2285H238.244V30H235.451V23.3008H235.275L230.978 30ZM250.276 21.1035H248.44V23.584H250.12C250.673 23.584 251.09 23.4766 251.37 23.2617C251.656 23.0404 251.799 22.7311 251.799 22.334C251.799 21.9499 251.669 21.6504 251.409 21.4355C251.148 21.2142 250.771 21.1035 250.276 21.1035ZM250.276 25.293H248.44V28.125H250.422C251.002 28.125 251.444 28.0046 251.75 27.7637C252.056 27.5163 252.209 27.1615 252.209 26.6992C252.209 26.237 252.043 25.8887 251.711 25.6543C251.379 25.4134 250.901 25.293 250.276 25.293ZM245.647 30V19.2285H251.028C252.141 19.2285 253.01 19.4694 253.635 19.9512C254.267 20.4329 254.582 21.097 254.582 21.9434C254.582 22.5033 254.397 23.0013 254.026 23.4375C253.661 23.8737 253.202 24.1341 252.649 24.2188V24.3945C253.365 24.4596 253.944 24.7266 254.387 25.1953C254.836 25.6576 255.061 26.2207 255.061 26.8848C255.061 27.8288 254.706 28.584 253.996 29.1504C253.293 29.7168 252.336 30 251.125 30H245.647ZM264.28 30V21.4648H260.12V30H257.278V19.2285H267.122V30H264.28ZM272.562 30H269.769V19.2285H272.562V25.8496H272.737L277.034 19.2285H279.827V30H277.034V23.3008H276.859L272.562 30ZM282.474 30V19.2285H285.316V27.7637H288.402V19.2285H291.244V27.7637H294.33V19.2285H297.171V30H282.474ZM302.602 30H299.809V19.2285H302.602V25.8496H302.777L307.074 19.2285H309.867V30H307.074V23.3008H306.898L302.602 30ZM77.6227 45.0273H74.9664C74.8688 44.5 74.6344 44.0866 74.2633 43.7871C73.8987 43.4811 73.4202 43.3281 72.8277 43.3281C72.0595 43.3281 71.4671 43.6081 71.0504 44.168C70.6402 44.7279 70.4352 45.5352 70.4352 46.5898C70.4352 47.6576 70.6402 48.4779 71.0504 49.0508C71.4671 49.6172 72.0595 49.9004 72.8277 49.9004C73.4137 49.9004 73.8889 49.7604 74.2535 49.4805C74.6246 49.2005 74.8622 48.7969 74.9664 48.2695H77.6227C77.5055 49.487 77.0237 50.4538 76.1773 51.1699C75.331 51.8796 74.2145 52.2344 72.8277 52.2344C71.148 52.2344 69.8492 51.7461 68.9313 50.7695C68.0198 49.7865 67.5641 48.3932 67.5641 46.5898C67.5641 44.7995 68.0198 43.4193 68.9313 42.4492C69.8427 41.4792 71.1415 40.9941 72.8277 40.9941C74.234 40.9941 75.3538 41.3555 76.1871 42.0781C77.027 42.8008 77.5055 43.7839 77.6227 45.0273ZM84.2734 43.1035H82.4375V45.584H84.1172C84.6706 45.584 85.0872 45.4766 85.3672 45.2617C85.6536 45.0404 85.7969 44.7311 85.7969 44.334C85.7969 43.9499 85.6667 43.6504 85.4063 43.4355C85.1458 43.2142 84.7682 43.1035 84.2734 43.1035ZM84.2734 47.293H82.4375V50.125H84.4199C84.9994 50.125 85.4421 50.0046 85.748 49.7637C86.054 49.5163 86.207 49.1615 86.207 48.6992C86.207 48.237 86.041 47.8887 85.709 47.6543C85.377 47.4134 84.8984 47.293 84.2734 47.293ZM79.6445 52V41.2285H85.0254C86.1387 41.2285 87.0078 41.4694 87.6328 41.9512C88.2643 42.4329 88.5801 43.097 88.5801 43.9434C88.5801 44.5033 88.3945 45.0013 88.0234 45.4375C87.6589 45.8737 87.1999 46.1341 86.6465 46.2188V46.3945C87.3626 46.4596 87.9421 46.7266 88.3848 47.1953C88.834 47.6576 89.0586 48.2207 89.0586 48.8848C89.0586 49.8288 88.7038 50.584 87.9941 51.1504C87.291 51.7168 86.334 52 85.123 52H79.6445ZM99.7816 50.7402C98.8441 51.7363 97.5486 52.2344 95.8949 52.2344C94.2413 52.2344 92.9425 51.7363 91.9984 50.7402C91.0609 49.7441 90.5922 48.3672 90.5922 46.6094C90.5922 44.8646 91.0642 43.4941 92.0082 42.498C92.9587 41.4954 94.2543 40.9941 95.8949 40.9941C97.5355 40.9941 98.8279 41.4954 99.7719 42.498C100.722 43.4941 101.198 44.8646 101.198 46.6094C101.198 48.3672 100.726 49.7441 99.7816 50.7402ZM95.8949 49.9102C96.6501 49.9102 97.2361 49.6237 97.6527 49.0508C98.0694 48.4714 98.2777 47.6576 98.2777 46.6094C98.2777 45.5742 98.0661 44.7669 97.643 44.1875C97.2263 43.6081 96.6436 43.3184 95.8949 43.3184C95.1397 43.3184 94.5538 43.6081 94.1371 44.1875C93.7204 44.7669 93.5121 45.5742 93.5121 46.6094C93.5121 47.6576 93.7172 48.4714 94.1273 49.0508C94.544 49.6237 95.1332 49.9102 95.8949 49.9102ZM106.11 52H103.317V41.2285H106.11V47.8496H106.286L110.583 41.2285H113.376V52H110.583V45.3008H110.407L106.11 52ZM104.518 36.2188H106.647C106.66 36.7461 106.81 37.179 107.096 37.5176C107.383 37.8496 107.761 38.0156 108.229 38.0156C108.698 38.0156 109.076 37.8496 109.362 37.5176C109.655 37.179 109.808 36.7461 109.821 36.2188H111.95C111.95 37.2279 111.608 38.0514 110.925 38.6895C110.241 39.321 109.343 39.6367 108.229 39.6367C107.116 39.6367 106.218 39.321 105.534 38.6895C104.857 38.0579 104.518 37.2344 104.518 36.2188ZM129.441 50.7402C128.504 51.7363 127.208 52.2344 125.554 52.2344C123.901 52.2344 122.602 51.7363 121.658 50.7402C120.72 49.7441 120.252 48.3672 120.252 46.6094C120.252 44.8646 120.724 43.4941 121.668 42.498C122.618 41.4954 123.914 40.9941 125.554 40.9941C127.195 40.9941 128.487 41.4954 129.431 42.498C130.382 43.4941 130.857 44.8646 130.857 46.6094C130.857 48.3672 130.385 49.7441 129.441 50.7402ZM125.554 49.9102C126.31 49.9102 126.895 49.6237 127.312 49.0508C127.729 48.4714 127.937 47.6576 127.937 46.6094C127.937 45.5742 127.726 44.7669 127.302 44.1875C126.886 43.6081 126.303 43.3184 125.554 43.3184C124.799 43.3184 124.213 43.6081 123.796 44.1875C123.38 44.7669 123.171 45.5742 123.171 46.6094C123.171 47.6576 123.377 48.4714 123.787 49.0508C124.203 49.6237 124.793 49.9102 125.554 49.9102ZM140.838 41.2285V43.4648H137.615V52H134.773V43.4648H131.551V41.2285H140.838ZM147.284 43.1035H145.448V45.584H147.127C147.681 45.584 148.097 45.4766 148.377 45.2617C148.664 45.0404 148.807 44.7311 148.807 44.334C148.807 43.9499 148.677 43.6504 148.416 43.4355C148.156 43.2142 147.778 43.1035 147.284 43.1035ZM147.284 47.293H145.448V50.125H147.43C148.01 50.125 148.452 50.0046 148.758 49.7637C149.064 49.5163 149.217 49.1615 149.217 48.6992C149.217 48.237 149.051 47.8887 148.719 47.6543C148.387 47.4134 147.909 47.293 147.284 47.293ZM142.655 52V41.2285H148.036C149.149 41.2285 150.018 41.4694 150.643 41.9512C151.274 42.4329 151.59 43.097 151.59 43.9434C151.59 44.5033 151.405 45.0013 151.034 45.4375C150.669 45.8737 150.21 46.1341 149.657 46.2188V46.3945C150.373 46.4596 150.952 46.7266 151.395 47.1953C151.844 47.6576 152.069 48.2207 152.069 48.8848C152.069 49.8288 151.714 50.584 151.004 51.1504C150.301 51.7168 149.344 52 148.133 52H142.655ZM158.788 43.1719C158.13 43.1719 157.587 43.3835 157.157 43.8066C156.734 44.2298 156.496 44.7897 156.444 45.4863H161.034C161.001 44.7702 160.783 44.207 160.38 43.7969C159.983 43.3802 159.452 43.1719 158.788 43.1719ZM161.093 48.9336H163.739C163.524 49.9557 162.977 50.763 162.098 51.3555C161.226 51.9414 160.132 52.2344 158.817 52.2344C157.177 52.2344 155.897 51.7461 154.979 50.7695C154.061 49.7865 153.602 48.4193 153.602 46.668C153.602 44.9167 154.065 43.5332 154.989 42.5176C155.914 41.502 157.177 40.9941 158.778 40.9941C160.367 40.9941 161.604 41.4727 162.489 42.4297C163.381 43.3867 163.827 44.7214 163.827 46.4336V47.3027H156.434V47.4492C156.454 48.25 156.682 48.8848 157.118 49.3535C157.561 49.8158 158.153 50.0469 158.895 50.0469C159.455 50.0469 159.924 49.9525 160.302 49.7637C160.679 49.5684 160.943 49.2917 161.093 48.9336ZM173.954 41.2285V43.4648H170.732V52H167.89V43.4648H164.667V41.2285H173.954ZM185.156 43.1035H183.32V45.584H185C185.553 45.584 185.97 45.4766 186.25 45.2617C186.536 45.0404 186.68 44.7311 186.68 44.334C186.68 43.9499 186.549 43.6504 186.289 43.4355C186.029 43.2142 185.651 43.1035 185.156 43.1035ZM185.156 47.293H183.32V50.125H185.303C185.882 50.125 186.325 50.0046 186.631 49.7637C186.937 49.5163 187.09 49.1615 187.09 48.6992C187.09 48.237 186.924 47.8887 186.592 47.6543C186.26 47.4134 185.781 47.293 185.156 47.293ZM180.527 52V41.2285H185.908C187.021 41.2285 187.891 41.4694 188.516 41.9512C189.147 42.4329 189.463 43.097 189.463 43.9434C189.463 44.5033 189.277 45.0013 188.906 45.4375C188.542 45.8737 188.083 46.1341 187.529 46.2188V46.3945C188.245 46.4596 188.825 46.7266 189.268 47.1953C189.717 47.6576 189.941 48.2207 189.941 48.8848C189.941 49.8288 189.587 50.584 188.877 51.1504C188.174 51.7168 187.217 52 186.006 52H180.527ZM203.917 52V43.4648H199.757V52H196.915V41.2285H206.759V52H203.917ZM218.068 50.7402C217.13 51.7363 215.834 52.2344 214.181 52.2344C212.527 52.2344 211.228 51.7363 210.284 50.7402C209.347 49.7441 208.878 48.3672 208.878 46.6094C208.878 44.8646 209.35 43.4941 210.294 42.498C211.245 41.4954 212.54 40.9941 214.181 40.9941C215.821 40.9941 217.114 41.4954 218.058 42.498C219.008 43.4941 219.484 44.8646 219.484 46.6094C219.484 48.3672 219.012 49.7441 218.068 50.7402ZM214.181 49.9102C214.936 49.9102 215.522 49.6237 215.939 49.0508C216.355 48.4714 216.564 47.6576 216.564 46.6094C216.564 45.5742 216.352 44.7669 215.929 44.1875C215.512 43.6081 214.93 43.3184 214.181 43.3184C213.426 43.3184 212.84 43.6081 212.423 44.1875C212.006 44.7669 211.798 45.5742 211.798 46.6094C211.798 47.6576 212.003 48.4714 212.413 49.0508C212.83 49.6237 213.419 49.9102 214.181 49.9102ZM225.031 46.8242C224.985 47.6641 224.891 48.3932 224.748 49.0117C224.604 49.6302 224.393 50.1836 224.113 50.6719C223.833 51.1536 223.462 51.5182 223 51.7656C222.544 52.0065 221.994 52.127 221.349 52.127C220.998 52.127 220.695 52.0846 220.441 52V49.5C220.623 49.5456 220.828 49.5684 221.056 49.5684C221.31 49.5684 221.525 49.4967 221.701 49.3535C221.883 49.2103 222.026 49.002 222.13 48.7285C222.241 48.4486 222.323 48.1426 222.375 47.8105C222.433 47.4785 222.476 47.0846 222.502 46.6289L222.814 41.2285H230.92V52H228.078V43.4648H225.255L225.031 46.8242ZM238.225 43.1719C237.567 43.1719 237.023 43.3835 236.594 43.8066C236.171 44.2298 235.933 44.7897 235.881 45.4863H240.471C240.438 44.7702 240.22 44.207 239.816 43.7969C239.419 43.3802 238.889 43.1719 238.225 43.1719ZM240.529 48.9336H243.176C242.961 49.9557 242.414 50.763 241.535 51.3555C240.663 51.9414 239.569 52.2344 238.254 52.2344C236.613 52.2344 235.334 51.7461 234.416 50.7695C233.498 49.7865 233.039 48.4193 233.039 46.668C233.039 44.9167 233.501 43.5332 234.426 42.5176C235.35 41.502 236.613 40.9941 238.215 40.9941C239.803 40.9941 241.04 41.4727 241.926 42.4297C242.818 43.3867 243.264 44.7214 243.264 46.4336V47.3027H235.871V47.4492C235.891 48.25 236.118 48.8848 236.555 49.3535C236.997 49.8158 237.59 50.0469 238.332 50.0469C238.892 50.0469 239.361 49.9525 239.738 49.7637C240.116 49.5684 240.38 49.2917 240.529 48.9336ZM254.778 43.1035H252.942V45.584H254.622C255.175 45.584 255.592 45.4766 255.872 45.2617C256.158 45.0404 256.302 44.7311 256.302 44.334C256.302 43.9499 256.171 43.6504 255.911 43.4355C255.651 43.2142 255.273 43.1035 254.778 43.1035ZM254.778 47.293H252.942V50.125H254.925C255.504 50.125 255.947 50.0046 256.253 49.7637C256.559 49.5163 256.712 49.1615 256.712 48.6992C256.712 48.237 256.546 47.8887 256.214 47.6543C255.882 47.4134 255.403 47.293 254.778 47.293ZM250.149 52V41.2285H255.53C256.643 41.2285 257.513 41.4694 258.138 41.9512C258.769 42.4329 259.085 43.097 259.085 43.9434C259.085 44.5033 258.899 45.0013 258.528 45.4375C258.164 45.8737 257.705 46.1341 257.151 46.2188V46.3945C257.867 46.4596 258.447 46.7266 258.889 47.1953C259.339 47.6576 259.563 48.2207 259.563 48.8848C259.563 49.8288 259.208 50.584 258.499 51.1504C257.796 51.7168 256.839 52 255.628 52H250.149ZM268.88 52V47.5957H264.622V52H261.78V41.2285H264.622V45.3594H268.88V41.2285H271.722V52H268.88ZM277.162 52H274.369V41.2285H277.162V47.8496H277.337L281.634 41.2285H284.427V52H281.634V45.3008H281.459L277.162 52ZM291.283 52.2344C290.665 52.2344 290.089 52.166 289.555 52.0293C289.021 51.8926 288.529 51.6842 288.08 51.4043C287.631 51.1243 287.263 50.7435 286.977 50.2617C286.697 49.7799 286.531 49.2168 286.479 48.5723H289.213C289.317 49.0345 289.548 49.3796 289.906 49.6074C290.271 49.8288 290.73 49.9395 291.283 49.9395C291.863 49.9395 292.322 49.8288 292.66 49.6074C292.999 49.3796 293.168 49.0605 293.168 48.6504C293.168 47.8431 292.543 47.4395 291.293 47.4395H289.779V45.5254H291.215C292.309 45.5254 292.855 45.1478 292.855 44.3926C292.855 44.0475 292.715 43.7676 292.436 43.5527C292.162 43.3314 291.755 43.2207 291.215 43.2207C290.694 43.2207 290.268 43.3314 289.936 43.5527C289.61 43.7741 289.415 44.0866 289.35 44.4902H286.664C286.768 43.416 287.214 42.5664 288.002 41.9414C288.796 41.3099 289.864 40.9941 291.205 40.9941C292.611 40.9941 293.699 41.2643 294.467 41.8047C295.242 42.3385 295.629 43.0905 295.629 44.0605C295.629 44.5944 295.479 45.0501 295.18 45.4277C294.88 45.8053 294.483 46.0625 293.988 46.1992V46.375C294.652 46.5443 295.154 46.8405 295.492 47.2637C295.837 47.6803 296.01 48.1816 296.01 48.7676C296.01 49.8223 295.587 50.6654 294.74 51.2969C293.9 51.9219 292.748 52.2344 291.283 52.2344ZM299.145 55.916C298.539 55.916 298.178 55.9062 298.061 55.8867V53.6016C298.126 53.6146 298.341 53.6211 298.705 53.6211C299.246 53.6211 299.669 53.5267 299.975 53.3379C300.281 53.1556 300.493 52.8626 300.61 52.459L300.707 52.0684L296.928 41.2285H300.063L302.329 49.3926H302.504L304.77 41.2285H307.778L304.067 52.166C303.611 53.5462 303.012 54.5163 302.27 55.0762C301.534 55.6361 300.493 55.916 299.145 55.916Z"
     fill="white"
     id="path1" />
  <rect
     x="12.5"
     y="95"
     width="350"
     height="178"
     rx="13"
     stroke="#EFCEDF"
     stroke-width="2"
     stroke-dasharray="4 4"
     id="rect3" />
  <rect
     x="34"
     y="312.5"
     width="51"
     height="51"
     rx="11.5"
     stroke="#F0F0F0"
     id="rect5" />
  <rect
     x="98"
     y="312.5"
     width="51"
     height="51"
     rx="11.5"
     stroke="#F0F0F0"
     id="rect7" />
  <rect
     x="162"
     y="312.5"
     width="51"
     height="51"
     rx="11.5"
     stroke="#F0F0F0"
     id="rect9" />
  <rect
     x="226"
     y="312.5"
     width="51"
     height="51"
     rx="11.5"
     stroke="#F0F0F0"
     id="rect11" />
  <rect
     x="290"
     y="312.5"
     width="51"
     height="51"
     rx="11.5"
     stroke="#F0F0F0"
     id="rect13" />
  <rect
     x="260"
     y="450.5"
     width="39"
     height="39"
     rx="7.5"
     stroke="#f0f0f0"
     id="rect39" />
  <defs
     id="defs43">
    <inkscape:path-effect
       effect="powermask"
       id="path-effect4"
       is_visible="true"
       lpeversion="1"
       uri="#mask-powermask-path-effect4"
       invert="false"
       hide_mask="false"
       background="true"
       background_color="#ffffffff" />
    <inkscape:path-effect
       effect="powermask"
       id="path-effect32"
       is_visible="true"
       lpeversion="1"
       uri="#mask-powermask-path-effect32"
       invert="false"
       hide_mask="false"
       background="true"
       background_color="#ffffffff" />
    <inkscape:path-effect
       effect="powermask"
       id="path-effect22"
       is_visible="true"
       lpeversion="1"
       uri="#mask-powermask-path-effect22"
       invert="false"
       hide_mask="false"
       background="true"
       background_color="#ffffffff" />
    <inkscape:path-effect
       effect="powermask"
       id="path-effect14"
       is_visible="true"
       lpeversion="1"
       uri="#mask-powermask-path-effect14"
       invert="false"
       hide_mask="false"
       background="true"
       background_color="#ffffffff" />
    <inkscape:path-effect
       effect="powermask"
       id="path-effect2"
       is_visible="true"
       lpeversion="1"
       uri="#mask-powermask-path-effect2"
       invert="false"
       hide_mask="false"
       background="true"
       background_color="#ffffffff" />
    <inkscape:path-effect
       effect="powermask"
       id="path-effect29"
       is_visible="true"
       lpeversion="1"
       uri="#mask-powermask-path-effect29"
       invert="false"
       hide_mask="false"
       background="true"
       background_color="#ffffffff" />
    <inkscape:path-effect
       effect="powermask"
       id="path-effect16"
       is_visible="true"
       lpeversion="1"
       uri="#mask-powermask-path-effect16"
       invert="false"
       hide_mask="false"
       background="true"
       background_color="#ffffffff" />
    <inkscape:path-effect
       effect="powermask"
       id="path-effect51"
       is_visible="true"
       lpeversion="1"
       uri="#mask-powermask-path-effect51"
       invert="false"
       hide_mask="false"
       background="true"
       background_color="#ffffffff" />
    <inkscape:path-effect
       effect="powermask"
       id="path-effect49"
       is_visible="true"
       lpeversion="1"
       uri="#mask-powermask-path-effect49"
       invert="false"
       hide_mask="false"
       background="true"
       background_color="#ffffffff" />
    <inkscape:path-effect
       effect="powermask"
       id="path-effect47"
       is_visible="true"
       lpeversion="1"
       uri="#mask-powermask-path-effect47"
       invert="false"
       hide_mask="false"
       background="true"
       background_color="#ffffffff" />
    <inkscape:path-effect
       effect="powermask"
       id="path-effect46"
       is_visible="true"
       lpeversion="1"
       uri="#mask-powermask-path-effect46"
       invert="false"
       hide_mask="false"
       background="true"
       background_color="#ffffffff" />
    <inkscape:path-effect
       effect="powermask"
       id="path-effect43"
       is_visible="true"
       lpeversion="1"
       uri="#mask-powermask-path-effect43"
       invert="false"
       hide_mask="false"
       background="true"
       background_color="#ffffffff" />
    <inkscape:path-effect
       effect="powermask"
       id="path-effect41"
       is_visible="true"
       lpeversion="1"
       uri="#mask-powermask-path-effect41"
       invert="false"
       hide_mask="false"
       background="true"
       background_color="#ffffffff" />
    <inkscape:path-effect
       effect="powermask"
       id="path-effect38"
       is_visible="true"
       lpeversion="1"
       uri="#mask-powermask-path-effect38"
       invert="false"
       hide_mask="false"
       background="true"
       background_color="#ffffffff" />
    <inkscape:path-effect
       effect="powermask"
       id="path-effect34"
       is_visible="true"
       lpeversion="1"
       uri="#mask-powermask-path-effect34"
       invert="false"
       hide_mask="false"
       background="true"
       background_color="#ffffffff" />
    <inkscape:path-effect
       effect="powermask"
       id="path-effect30"
       is_visible="true"
       lpeversion="1"
       uri="#mask-powermask-path-effect30"
       invert="false"
       hide_mask="false"
       background="true"
       background_color="#ffffffff" />
    <inkscape:path-effect
       effect="powermask"
       id="path-effect28"
       is_visible="true"
       lpeversion="1"
       uri="#mask-powermask-path-effect28"
       invert="false"
       hide_mask="false"
       background="true"
       background_color="#ffffffff" />
    <inkscape:path-effect
       effect="powermask"
       id="path-effect24"
       is_visible="true"
       lpeversion="1"
       uri="#mask-powermask-path-effect24"
       invert="false"
       hide_mask="false"
       background="true"
       background_color="#ffffffff" />
    <inkscape:path-effect
       effect="powermask"
       id="path-effect18"
       is_visible="true"
       lpeversion="1"
       uri="#mask-powermask-path-effect18"
       invert="false"
       hide_mask="false"
       background="true"
       background_color="#ffffffff" />
    <inkscape:path-effect
       effect="powermask"
       id="path-effect45"
       is_visible="true"
       lpeversion="1"
       uri="#mask-powermask-path-effect45"
       invert="false"
       hide_mask="false"
       background="true"
       background_color="#ffffffff" />
    <linearGradient
       id="paint0_linear_409_3305"
       x1="0"
       y1="0"
       x2="299.95"
       y2="543.425"
       gradientUnits="userSpaceOnUse">
      <stop
         stop-color="#F69D9D"
         id="stop42" />
      <stop
         offset="1"
         stop-color="#F6BEBE"
         id="stop43" />
    </linearGradient>
    <mask
       maskUnits="userSpaceOnUse"
       id="mask-powermask-path-effect45">
      <path
         id="mask-powermask-path-effect45_box"
         style="fill:#ffffff;fill-opacity:1"
         d="M -1,86.437271 H 376 V 282.26675 H -1 Z" />
      <path
         id="path45"
         style="fill:#000000;stroke-width:2;stroke-dasharray:4, 4"
         d="m 25.5,95 h 324 c 7.202,0 13,5.798 13,13 v 152 c 0,7.202 -5.798,13 -13,13 h -324 c -7.202,0 -13,-5.798 -13,-13 V 108 c 0,-7.202 5.798,-13 13,-13 z" />
    </mask>
    <filter
       id="mask-powermask-path-effect45_inverse"
       inkscape:label="filtermask-powermask-path-effect45"
       style="color-interpolation-filters:sRGB"
       height="100"
       width="100"
       x="-50"
       y="-50">
      <feColorMatrix
         id="mask-powermask-path-effect45_primitive1"
         values="1"
         type="saturate"
         result="fbSourceGraphic" />
      <feColorMatrix
         id="mask-powermask-path-effect45_primitive2"
         values="-1 0 0 0 1 0 -1 0 0 1 0 0 -1 0 1 0 0 0 1 0 "
         in="fbSourceGraphic" />
    </filter>
    <filter
       id="mask-powermask-path-effect45-9_inverse"
       inkscape:label="filtermask-powermask-path-effect45-9"
       style="color-interpolation-filters:sRGB"
       height="100"
       width="100"
       x="-50"
       y="-50">
      <feColorMatrix
         id="mask-powermask-path-effect45-9_primitive1"
         values="1"
         type="saturate"
         result="fbSourceGraphic" />
      <feColorMatrix
         id="mask-powermask-path-effect45-9_primitive2"
         values="-1 0 0 0 1 0 -1 0 0 1 0 0 -1 0 1 0 0 0 1 0 "
         in="fbSourceGraphic" />
    </filter>
    <filter
       id="mask-powermask-path-effect16_inverse"
       inkscape:label="filtermask-powermask-path-effect16"
       style="color-interpolation-filters:sRGB"
       height="100"
       width="100"
       x="-50"
       y="-50">
      <feColorMatrix
         id="mask-powermask-path-effect16_primitive1"
         values="1"
         type="saturate"
         result="fbSourceGraphic" />
      <feColorMatrix
         id="mask-powermask-path-effect16_primitive2"
         values="-1 0 0 0 1 0 -1 0 0 1 0 0 -1 0 1 0 0 0 1 0 "
         in="fbSourceGraphic" />
    </filter>
    <mask
       maskUnits="userSpaceOnUse"
       id="mask-powermask-path-effect18">
      <rect
         x="30"
         y="404.5"
         width="39"
         height="39"
         rx="7.5"
         stroke="#f0f0f0"
         id="rect18"
         style="display:inline;fill:#000000;fill-opacity:1;stroke:none" />
    </mask>
    <filter
       id="mask-powermask-path-effect18-4_inverse"
       inkscape:label="filtermask-powermask-path-effect18-4"
       style="color-interpolation-filters:sRGB"
       height="100"
       width="100"
       x="-50"
       y="-50">
      <feColorMatrix
         id="mask-powermask-path-effect18-4_primitive1"
         values="1"
         type="saturate"
         result="fbSourceGraphic" />
      <feColorMatrix
         id="mask-powermask-path-effect18-4_primitive2"
         values="-1 0 0 0 1 0 -1 0 0 1 0 0 -1 0 1 0 0 0 1 0 "
         in="fbSourceGraphic" />
    </filter>
    <mask
       maskUnits="userSpaceOnUse"
       id="mask-powermask-path-effect28">
      <path
         id="mask-powermask-path-effect28_box"
         style="fill:#ffffff;fill-opacity:1"
         d="m 115.05237,395.88672 h 51.5274 v 52.7503 h -51.5274 z" />
      <rect
         x="122"
         y="404.5"
         width="39"
         height="39"
         rx="7.5"
         stroke="#F0F0F0"
         id="rect28"
         style="fill:#000000;fill-opacity:1;stroke:none;stroke-opacity:1"
         d="m 129.5,404.5 h 24 c 4.155,0 7.5,3.345 7.5,7.5 v 24 c 0,4.155 -3.345,7.5 -7.5,7.5 h -24 c -4.155,0 -7.5,-3.345 -7.5,-7.5 v -24 c 0,-4.155 3.345,-7.5 7.5,-7.5 z" />
    </mask>
    <filter
       id="mask-powermask-path-effect28_inverse"
       inkscape:label="filtermask-powermask-path-effect28"
       style="color-interpolation-filters:sRGB"
       height="100"
       width="100"
       x="-50"
       y="-50">
      <feColorMatrix
         id="mask-powermask-path-effect28_primitive1"
         values="1"
         type="saturate"
         result="fbSourceGraphic" />
      <feColorMatrix
         id="mask-powermask-path-effect28_primitive2"
         values="-1 0 0 0 1 0 -1 0 0 1 0 0 -1 0 1 0 0 0 1 0 "
         in="fbSourceGraphic" />
    </filter>
    <mask
       maskUnits="userSpaceOnUse"
       id="mask-powermask-path-effect30">
      <path
         id="mask-powermask-path-effect30_box"
         style="fill:#ffffff;fill-opacity:1"
         d="m 162.10231,396.54813 h 51.5274 v 52.7503 h -51.5274 z" />
      <rect
         x="168"
         y="404.5"
         width="39"
         height="39"
         rx="7.5"
         stroke="#F0F0F0"
         id="rect30"
         style="fill:#000000;fill-opacity:1;stroke:none"
         d="m 175.5,404.5 h 24 c 4.155,0 7.5,3.345 7.5,7.5 v 24 c 0,4.155 -3.345,7.5 -7.5,7.5 h -24 c -4.155,0 -7.5,-3.345 -7.5,-7.5 v -24 c 0,-4.155 3.345,-7.5 7.5,-7.5 z" />
    </mask>
    <filter
       id="mask-powermask-path-effect30_inverse"
       inkscape:label="filtermask-powermask-path-effect30"
       style="color-interpolation-filters:sRGB"
       height="100"
       width="100"
       x="-50"
       y="-50">
      <feColorMatrix
         id="mask-powermask-path-effect30_primitive1"
         values="1"
         type="saturate"
         result="fbSourceGraphic" />
      <feColorMatrix
         id="mask-powermask-path-effect30_primitive2"
         values="-1 0 0 0 1 0 -1 0 0 1 0 0 -1 0 1 0 0 0 1 0 "
         in="fbSourceGraphic" />
    </filter>
    <mask
       maskUnits="userSpaceOnUse"
       id="mask-powermask-path-effect34">
      <path
         id="mask-powermask-path-effect34_box"
         style="fill:#ffffff;fill-opacity:1"
         d="m 207.8587,397.15347 h 51.52741 v 52.75031 H 207.8587 Z" />
      <rect
         x="214"
         y="404.5"
         width="39"
         height="39"
         rx="7.5"
         stroke="#F0F0F0"
         id="rect34"
         style="fill:#000000;fill-opacity:1;stroke:none"
         d="m 221.5,404.5 h 24 c 4.155,0 7.5,3.345 7.5,7.5 v 24 c 0,4.155 -3.345,7.5 -7.5,7.5 h -24 c -4.155,0 -7.5,-3.345 -7.5,-7.5 v -24 c 0,-4.155 3.345,-7.5 7.5,-7.5 z" />
    </mask>
    <filter
       id="mask-powermask-path-effect34_inverse"
       inkscape:label="filtermask-powermask-path-effect34"
       style="color-interpolation-filters:sRGB"
       height="100"
       width="100"
       x="-50"
       y="-50">
      <feColorMatrix
         id="mask-powermask-path-effect34_primitive1"
         values="1"
         type="saturate"
         result="fbSourceGraphic" />
      <feColorMatrix
         id="mask-powermask-path-effect34_primitive2"
         values="-1 0 0 0 1 0 -1 0 0 1 0 0 -1 0 1 0 0 0 1 0 "
         in="fbSourceGraphic" />
    </filter>
    <mask
       maskUnits="userSpaceOnUse"
       id="mask-powermask-path-effect38">
      <path
         id="mask-powermask-path-effect38_box"
         style="fill:#ffffff;fill-opacity:1"
         d="m 253.19611,397.6626 h 51.5274 v 52.7503 h -51.5274 z" />
      <rect
         x="260"
         y="404.5"
         width="39"
         height="39"
         rx="7.5"
         stroke="#F0F0F0"
         id="rect38"
         style="fill:#000000;fill-opacity:1;stroke:none"
         d="m 267.5,404.5 h 24 c 4.155,0 7.5,3.345 7.5,7.5 v 24 c 0,4.155 -3.345,7.5 -7.5,7.5 h -24 c -4.155,0 -7.5,-3.345 -7.5,-7.5 v -24 c 0,-4.155 3.345,-7.5 7.5,-7.5 z" />
    </mask>
    <filter
       id="mask-powermask-path-effect38_inverse"
       inkscape:label="filtermask-powermask-path-effect38"
       style="color-interpolation-filters:sRGB"
       height="100"
       width="100"
       x="-50"
       y="-50">
      <feColorMatrix
         id="mask-powermask-path-effect38_primitive1"
         values="1"
         type="saturate"
         result="fbSourceGraphic" />
      <feColorMatrix
         id="mask-powermask-path-effect38_primitive2"
         values="-1 0 0 0 1 0 -1 0 0 1 0 0 -1 0 1 0 0 0 1 0 "
         in="fbSourceGraphic" />
    </filter>
    <mask
       maskUnits="userSpaceOnUse"
       id="mask-powermask-path-effect41">
      <path
         id="mask-powermask-path-effect41_box"
         style="fill:#ffffff;fill-opacity:1"
         d="m 298.7442,397.93668 h 51.52741 v 52.7503 H 298.7442 Z" />
      <rect
         x="306"
         y="404.5"
         width="39"
         height="39"
         rx="7.5"
         stroke="#F0F0F0"
         id="rect41"
         style="fill:#000000;fill-opacity:1;stroke:none"
         d="m 313.5,404.5 h 24 c 4.155,0 7.5,3.345 7.5,7.5 v 24 c 0,4.155 -3.345,7.5 -7.5,7.5 h -24 c -4.155,0 -7.5,-3.345 -7.5,-7.5 v -24 c 0,-4.155 3.345,-7.5 7.5,-7.5 z" />
    </mask>
    <filter
       id="mask-powermask-path-effect41_inverse"
       inkscape:label="filtermask-powermask-path-effect41"
       style="color-interpolation-filters:sRGB"
       height="100"
       width="100"
       x="-50"
       y="-50">
      <feColorMatrix
         id="mask-powermask-path-effect41_primitive1"
         values="1"
         type="saturate"
         result="fbSourceGraphic" />
      <feColorMatrix
         id="mask-powermask-path-effect41_primitive2"
         values="-1 0 0 0 1 0 -1 0 0 1 0 0 -1 0 1 0 0 0 1 0 "
         in="fbSourceGraphic" />
    </filter>
    <mask
       maskUnits="userSpaceOnUse"
       id="mask-powermask-path-effect51">
      <path
         id="mask-powermask-path-effect51_box"
         style="fill:#ffffff;fill-opacity:1"
         d="m 253.15103,442.73203 h 51.52741 v 58.86479 h -51.52741 z" />
      <rect
         x="260"
         y="450.5"
         width="39"
         height="39"
         rx="7.5"
         stroke="#F0F0F0"
         id="rect51"
         style="fill:#000000;fill-opacity:1;stroke:none"
         d="m 267.5,450.5 h 24 c 4.155,0 7.5,3.345 7.5,7.5 v 24 c 0,4.155 -3.345,7.5 -7.5,7.5 h -24 c -4.155,0 -7.5,-3.345 -7.5,-7.5 v -24 c 0,-4.155 3.345,-7.5 7.5,-7.5 z" />
    </mask>
    <filter
       id="mask-powermask-path-effect51_inverse"
       inkscape:label="filtermask-powermask-path-effect51"
       style="color-interpolation-filters:sRGB"
       height="100"
       width="100"
       x="-50"
       y="-50">
      <feColorMatrix
         id="mask-powermask-path-effect51_primitive1"
         values="1"
         type="saturate"
         result="fbSourceGraphic" />
      <feColorMatrix
         id="mask-powermask-path-effect51_primitive2"
         values="-1 0 0 0 1 0 -1 0 0 1 0 0 -1 0 1 0 0 0 1 0 "
         in="fbSourceGraphic" />
    </filter>
    <mask
       maskUnits="userSpaceOnUse"
       id="mask-powermask-path-effect16">
      <rect
         x="30"
         y="404.5"
         width="39"
         height="39"
         rx="7.5"
         stroke="#f0f0f0"
         id="rect16"
         style="display:inline;fill:#000000;fill-opacity:1;stroke:none" />
    </mask>
    <mask
       maskUnits="userSpaceOnUse"
       id="mask-powermask-path-effect29">
      <path
         id="mask-powermask-path-effect29_box"
         style="fill:#ffffff;fill-opacity:1"
         d="M 2.0572472,391.55054 H 74.373936 v 57.03045 H 2.0572472 Z" />
      <rect
         x="30"
         y="404.5"
         width="39"
         height="39"
         rx="7.5"
         stroke="#f0f0f0"
         id="rect29"
         style="display:inline;fill:#000000;fill-opacity:1;stroke:none;stroke-opacity:1"
         d="m 37.5,404.5 h 24 c 4.155,0 7.5,3.345 7.5,7.5 v 24 c 0,4.155 -3.345,7.5 -7.5,7.5 h -24 c -4.155,0 -7.5,-3.345 -7.5,-7.5 v -24 c 0,-4.155 3.345,-7.5 7.5,-7.5 z" />
    </mask>
    <filter
       id="mask-powermask-path-effect29_inverse"
       inkscape:label="filtermask-powermask-path-effect29"
       style="color-interpolation-filters:sRGB"
       height="100"
       width="100"
       x="-50"
       y="-50">
      <feColorMatrix
         id="mask-powermask-path-effect29_primitive1"
         values="1"
         type="saturate"
         result="fbSourceGraphic" />
      <feColorMatrix
         id="mask-powermask-path-effect29_primitive2"
         values="-1 0 0 0 1 0 -1 0 0 1 0 0 -1 0 1 0 0 0 1 0 "
         in="fbSourceGraphic" />
    </filter>
    <mask
       maskUnits="userSpaceOnUse"
       id="mask-powermask-path-effect2">
      <path
         id="mask-powermask-path-effect2_box"
         style="fill:#ffffff;fill-opacity:1"
         d="m 69.123024,442.59073 h 51.527406 v 60.0877 H 69.123024 Z" />
      <rect
         x="76"
         y="450.5"
         width="39"
         height="39"
         rx="7.5"
         stroke="#F0F0F0"
         id="rect2"
         style="fill:#000000;fill-opacity:1;stroke:none"
         d="m 83.5,450.5 h 24 c 4.155,0 7.5,3.345 7.5,7.5 v 24 c 0,4.155 -3.345,7.5 -7.5,7.5 h -24 c -4.155,0 -7.5,-3.345 -7.5,-7.5 v -24 c 0,-4.155 3.345,-7.5 7.5,-7.5 z" />
    </mask>
    <filter
       id="mask-powermask-path-effect2_inverse"
       inkscape:label="filtermask-powermask-path-effect2"
       style="color-interpolation-filters:sRGB"
       height="100"
       width="100"
       x="-50"
       y="-50">
      <feColorMatrix
         id="mask-powermask-path-effect2_primitive1"
         values="1"
         type="saturate"
         result="fbSourceGraphic" />
      <feColorMatrix
         id="mask-powermask-path-effect2_primitive2"
         values="-1 0 0 0 1 0 -1 0 0 1 0 0 -1 0 1 0 0 0 1 0 "
         in="fbSourceGraphic" />
    </filter>
    <mask
       maskUnits="userSpaceOnUse"
       id="mask-powermask-path-effect14">
      <path
         id="mask-powermask-path-effect14_box"
         style="fill:#ffffff;fill-opacity:1"
         d="m 114.74422,443.05725 h 51.5274 v 56.419 h -51.5274 z" />
      <rect
         x="122"
         y="450.5"
         width="39"
         height="39"
         rx="7.5"
         stroke="#F0F0F0"
         id="rect14"
         style="fill:#000000;fill-opacity:1;stroke:none"
         d="m 129.5,450.5 h 24 c 4.155,0 7.5,3.345 7.5,7.5 v 24 c 0,4.155 -3.345,7.5 -7.5,7.5 h -24 c -4.155,0 -7.5,-3.345 -7.5,-7.5 v -24 c 0,-4.155 3.345,-7.5 7.5,-7.5 z" />
    </mask>
    <filter
       id="mask-powermask-path-effect14_inverse"
       inkscape:label="filtermask-powermask-path-effect14"
       style="color-interpolation-filters:sRGB"
       height="100"
       width="100"
       x="-50"
       y="-50">
      <feColorMatrix
         id="mask-powermask-path-effect14_primitive1"
         values="1"
         type="saturate"
         result="fbSourceGraphic" />
      <feColorMatrix
         id="mask-powermask-path-effect14_primitive2"
         values="-1 0 0 0 1 0 -1 0 0 1 0 0 -1 0 1 0 0 0 1 0 "
         in="fbSourceGraphic" />
    </filter>
    <mask
       maskUnits="userSpaceOnUse"
       id="mask-powermask-path-effect22">
      <path
         id="mask-powermask-path-effect22_box"
         style="fill:#ffffff;fill-opacity:1"
         d="m 161.45798,443.72595 h 51.5274 v 60.0877 h -51.5274 z" />
      <rect
         x="168"
         y="450.5"
         width="39"
         height="39"
         rx="7.5"
         stroke="#f0f0f0"
         id="rect22"
         style="display:inline;fill:#000000;fill-opacity:1;stroke:none"
         d="m 175.5,450.5 h 24 c 4.155,0 7.5,3.345 7.5,7.5 v 24 c 0,4.155 -3.345,7.5 -7.5,7.5 h -24 c -4.155,0 -7.5,-3.345 -7.5,-7.5 v -24 c 0,-4.155 3.345,-7.5 7.5,-7.5 z" />
    </mask>
    <filter
       id="mask-powermask-path-effect22_inverse"
       inkscape:label="filtermask-powermask-path-effect22"
       style="color-interpolation-filters:sRGB"
       height="100"
       width="100"
       x="-50"
       y="-50">
      <feColorMatrix
         id="mask-powermask-path-effect22_primitive1"
         values="1"
         type="saturate"
         result="fbSourceGraphic" />
      <feColorMatrix
         id="mask-powermask-path-effect22_primitive2"
         values="-1 0 0 0 1 0 -1 0 0 1 0 0 -1 0 1 0 0 0 1 0 "
         in="fbSourceGraphic" />
    </filter>
    <mask
       maskUnits="userSpaceOnUse"
       id="mask-powermask-path-effect32">
      <path
         id="mask-powermask-path-effect32_box"
         style="fill:#ffffff;fill-opacity:1"
         d="m 205.64189,443.84042 h 51.52741 v 58.8648 h -51.52741 z" />
      <rect
         x="214"
         y="450.5"
         width="39"
         height="39"
         rx="7.5"
         stroke="#F0F0F0"
         id="rect32"
         style="fill:#000000;fill-opacity:1;stroke:none"
         d="m 221.5,450.5 h 24 c 4.155,0 7.5,3.345 7.5,7.5 v 24 c 0,4.155 -3.345,7.5 -7.5,7.5 h -24 c -4.155,0 -7.5,-3.345 -7.5,-7.5 v -24 c 0,-4.155 3.345,-7.5 7.5,-7.5 z" />
    </mask>
    <filter
       id="mask-powermask-path-effect32_inverse"
       inkscape:label="filtermask-powermask-path-effect32"
       style="color-interpolation-filters:sRGB"
       height="100"
       width="100"
       x="-50"
       y="-50">
      <feColorMatrix
         id="mask-powermask-path-effect32_primitive1"
         values="1"
         type="saturate"
         result="fbSourceGraphic" />
      <feColorMatrix
         id="mask-powermask-path-effect32_primitive2"
         values="-1 0 0 0 1 0 -1 0 0 1 0 0 -1 0 1 0 0 0 1 0 "
         in="fbSourceGraphic" />
    </filter>
    <mask
       maskUnits="userSpaceOnUse"
       id="mask-powermask-path-effect4">
      <path
         id="mask-powermask-path-effect4_box"
         style="fill:#ffffff;fill-opacity:1"
         d="m 68.705238,394.44214 h 51.527402 v 52.7503 H 68.705238 Z" />
      <rect
         x="76"
         y="404.5"
         width="39"
         height="39"
         rx="7.5"
         stroke="#F0F0F0"
         id="rect4"
         style="fill:#000000;fill-opacity:1;stroke:none"
         d="m 83.5,404.5 h 24 c 4.155,0 7.5,3.345 7.5,7.5 v 24 c 0,4.155 -3.345,7.5 -7.5,7.5 h -24 c -4.155,0 -7.5,-3.345 -7.5,-7.5 v -24 c 0,-4.155 3.345,-7.5 7.5,-7.5 z" />
    </mask>
    <filter
       id="mask-powermask-path-effect4_inverse"
       inkscape:label="filtermask-powermask-path-effect4"
       style="color-interpolation-filters:sRGB"
       height="100"
       width="100"
       x="-50"
       y="-50">
      <feColorMatrix
         id="mask-powermask-path-effect4_primitive1"
         values="1"
         type="saturate"
         result="fbSourceGraphic" />
      <feColorMatrix
         id="mask-powermask-path-effect4_primitive2"
         values="-1 0 0 0 1 0 -1 0 0 1 0 0 -1 0 1 0 0 0 1 0 "
         in="fbSourceGraphic" />
    </filter>
  </defs>
  <path
     style="display:inline;fill:#f6bebe;fill-opacity:1;stroke:none;stroke-width:1.00157"
     id="rect20"
     width="49.527405"
     height="50.750305"
     x="69.705238"
     y="395.44214"
     rx="9.45158"
     mask="url(#mask-powermask-path-effect4)"
     sodipodi:type="rect"
     inkscape:path-effect="#path-effect4"
     d="m 79.156818,395.44214 h 30.624242 c 5.23618,0 9.45158,4.2154 9.45158,9.45158 v 31.84714 c 0,5.23618 -4.2154,9.45158 -9.45158,9.45158 H 79.156818 c -5.236175,0 -9.45158,-4.2154 -9.45158,-9.45158 v -31.84714 c 0,-5.23618 4.215405,-9.45158 9.45158,-9.45158 z" />
  <path
     style="display:inline;fill:#f6bebe;fill-opacity:1;stroke:none;stroke-width:1.00157"
     id="rect20-3"
     width="49.527405"
     height="50.750305"
     x="116.05237"
     y="396.88672"
     rx="9.45158"
     mask="url(#mask-powermask-path-effect28)"
     inkscape:path-effect="#path-effect28"
     sodipodi:type="rect"
     d="m 125.50395,396.88672 h 30.62424 c 5.23618,0 9.45158,4.2154 9.45158,9.45158 v 31.84714 c 0,5.23618 -4.2154,9.45158 -9.45158,9.45158 h -30.62424 c -5.23618,0 -9.45158,-4.2154 -9.45158,-9.45158 V 406.3383 c 0,-5.23618 4.2154,-9.45158 9.45158,-9.45158 z" />
  <path
     style="display:inline;fill:#f6bebe;fill-opacity:1;stroke:none;stroke-width:1.00157"
     id="rect20-1"
     width="49.527405"
     height="50.750305"
     x="163.10231"
     y="397.54813"
     rx="9.45158"
     mask="url(#mask-powermask-path-effect30)"
     inkscape:path-effect="#path-effect30"
     sodipodi:type="rect"
     d="m 172.55389,397.54813 h 30.62424 c 5.23618,0 9.45158,4.2154 9.45158,9.45158 v 31.84714 c 0,5.23618 -4.2154,9.45158 -9.45158,9.45158 h -30.62424 c -5.23618,0 -9.45158,-4.2154 -9.45158,-9.45158 v -31.84714 c 0,-5.23618 4.2154,-9.45158 9.45158,-9.45158 z" />
  <path
     style="display:inline;fill:#f6bebe;fill-opacity:1;stroke:none;stroke-width:1.00157"
     id="rect20-6"
     width="49.527405"
     height="50.750305"
     x="208.8587"
     y="398.15347"
     rx="9.45158"
     mask="url(#mask-powermask-path-effect34)"
     inkscape:path-effect="#path-effect34"
     sodipodi:type="rect"
     d="m 218.31028,398.15347 h 30.62425 c 5.23617,0 9.45158,4.21541 9.45158,9.45158 v 31.84715 c 0,5.23617 -4.21541,9.45158 -9.45158,9.45158 h -30.62425 c -5.23617,0 -9.45158,-4.21541 -9.45158,-9.45158 v -31.84715 c 0,-5.23617 4.21541,-9.45158 9.45158,-9.45158 z" />
  <path
     style="display:inline;fill:#f6bebe;fill-opacity:1;stroke:none;stroke-width:1.00157"
     id="rect20-62"
     width="49.527405"
     height="50.750305"
     x="254.19611"
     y="398.6626"
     rx="9.45158"
     mask="url(#mask-powermask-path-effect38)"
     inkscape:path-effect="#path-effect38"
     sodipodi:type="rect"
     d="m 263.64769,398.6626 h 30.62424 c 5.23618,0 9.45158,4.2154 9.45158,9.45158 v 31.84714 c 0,5.23618 -4.2154,9.45158 -9.45158,9.45158 h -30.62424 c -5.23618,0 -9.45158,-4.2154 -9.45158,-9.45158 v -31.84714 c 0,-5.23618 4.2154,-9.45158 9.45158,-9.45158 z" />
  <path
     style="display:inline;fill:#f6bebe;fill-opacity:1;stroke:none;stroke-width:1.00157"
     id="rect20-11"
     width="49.527405"
     height="50.750305"
     x="299.7442"
     y="398.93668"
     rx="9.45158"
     mask="url(#mask-powermask-path-effect41)"
     inkscape:path-effect="#path-effect41"
     sodipodi:type="rect"
     d="m 309.19578,398.93668 h 30.62425 c 5.23617,0 9.45158,4.2154 9.45158,9.45158 v 31.84714 c 0,5.23618 -4.21541,9.45158 -9.45158,9.45158 h -30.62425 c -5.23617,0 -9.45158,-4.2154 -9.45158,-9.45158 v -31.84714 c 0,-5.23618 4.21541,-9.45158 9.45158,-9.45158 z" />
  <path
     style="display:inline;fill:#f6bebe;fill-opacity:1;stroke:none;stroke-width:1.07153"
     id="rect20-66"
     width="49.527405"
     height="58.0877"
     x="70.123024"
     y="443.59073"
     rx="9.45158"
     mask="url(#mask-powermask-path-effect2)"
     sodipodi:type="rect"
     inkscape:path-effect="#path-effect2"
     d="m 79.574604,443.59073 h 30.624246 c 5.23617,0 9.45158,4.2154 9.45158,9.45158 v 39.18454 c 0,5.23617 -4.21541,9.45158 -9.45158,9.45158 H 79.574604 c -5.236175,0 -9.45158,-4.21541 -9.45158,-9.45158 v -39.18454 c 0,-5.23618 4.215405,-9.45158 9.45158,-9.45158 z" />
  <path
     style="display:inline;fill:#f6bebe;fill-opacity:1;stroke:none;stroke-width:1.03714"
     id="rect20-7"
     width="49.527405"
     height="54.419003"
     x="115.74422"
     y="444.05725"
     rx="9.45158"
     mask="url(#mask-powermask-path-effect14)"
     sodipodi:type="rect"
     inkscape:path-effect="#path-effect14"
     d="m 125.1958,444.05725 h 30.62424 c 5.23618,0 9.45158,4.21541 9.45158,9.45158 v 35.51584 c 0,5.23618 -4.2154,9.45158 -9.45158,9.45158 H 125.1958 c -5.23618,0 -9.45158,-4.2154 -9.45158,-9.45158 v -35.51584 c 0,-5.23617 4.2154,-9.45158 9.45158,-9.45158 z" />
  <path
     style="display:inline;fill:#f6bebe;fill-opacity:1;stroke:none;stroke-width:1.07153"
     id="rect20-16"
     width="49.527405"
     height="58.0877"
     x="162.45798"
     y="444.72595"
     rx="9.45158"
     mask="url(#mask-powermask-path-effect22)"
     sodipodi:type="rect"
     inkscape:path-effect="#path-effect22"
     d="m 171.90956,444.72595 h 30.62424 c 5.23618,0 9.45158,4.21541 9.45158,9.45158 v 39.18454 c 0,5.23618 -4.2154,9.45158 -9.45158,9.45158 h -30.62424 c -5.23618,0 -9.45158,-4.2154 -9.45158,-9.45158 v -39.18454 c 0,-5.23617 4.2154,-9.45158 9.45158,-9.45158 z" />
  <path
     style="display:inline;fill:#f6bebe;fill-opacity:1;stroke:none;stroke-width:1.06019"
     id="rect20-8"
     width="49.527405"
     height="56.864799"
     x="206.64189"
     y="444.84042"
     rx="9.45158"
     mask="url(#mask-powermask-path-effect32)"
     sodipodi:type="rect"
     inkscape:path-effect="#path-effect32"
     d="m 216.09347,444.84042 h 30.62425 c 5.23617,0 9.45158,4.21541 9.45158,9.45158 v 37.96164 c 0,5.23618 -4.21541,9.45158 -9.45158,9.45158 h -30.62425 c -5.23617,0 -9.45158,-4.2154 -9.45158,-9.45158 V 454.292 c 0,-5.23617 4.21541,-9.45158 9.45158,-9.45158 z" />
  <path
     style="fill:#f6bebe;fill-opacity:1;stroke:none;stroke-width:1.06019"
     id="rect20-0"
     width="49.527405"
     height="56.864799"
     x="254.15103"
     y="443.73203"
     rx="9.45158"
     mask="url(#mask-powermask-path-effect51)"
     inkscape:path-effect="#path-effect51"
     sodipodi:type="rect"
     d="m 263.60261,443.73203 h 30.62425 c 5.23617,0 9.45158,4.2154 9.45158,9.45158 v 37.96163 c 0,5.23618 -4.21541,9.45158 -9.45158,9.45158 h -30.62425 c -5.23617,0 -9.45158,-4.2154 -9.45158,-9.45158 v -37.96163 c 0,-5.23618 4.21541,-9.45158 9.45158,-9.45158 z" />
  <path
     style="fill:#f6bebe;fill-opacity:1;stroke:none;stroke-width:1.00157;stroke-opacity:1"
     id="rect26"
     width="70.316689"
     height="55.030449"
     x="3.0572472"
     y="392.55054"
     rx="7.5"
     mask="url(#mask-powermask-path-effect29)"
     inkscape:path-effect="#path-effect29"
     sodipodi:type="rect"
     d="m 10.557247,392.55054 h 55.316689 c 4.155,0 7.5,3.345 7.5,7.5 v 40.03045 c 0,4.155 -3.345,7.5 -7.5,7.5 H 10.557247 c -4.1549998,0 -7.4999998,-3.345 -7.4999998,-7.5 v -40.03045 c 0,-4.155 3.345,-7.5 7.4999998,-7.5 z" />
  <rect
     x="30"
     y="404.5"
     width="39"
     height="39"
     rx="7.5"
     stroke="#f0f0f0"
     id="rect15"
     style="display:inline" />
  <rect
     x="76"
     y="404.5"
     width="39"
     height="39"
     rx="7.5"
     stroke="#f0f0f0"
     id="rect17"
     style="display:inline" />
  <rect
     x="122"
     y="404.5"
     width="39"
     height="39"
     rx="7.5"
     stroke="#f0f0f0"
     id="rect19"
     style="display:inline" />
  <rect
     x="168"
     y="404.5"
     width="39"
     height="39"
     rx="7.5"
     stroke="#f0f0f0"
     id="rect21"
     style="display:inline" />
  <rect
     x="214"
     y="404.5"
     width="39"
     height="39"
     rx="7.5"
     stroke="#f0f0f0"
     id="rect23"
     style="display:inline" />
  <rect
     x="260"
     y="404.5"
     width="39"
     height="39"
     rx="7.5"
     stroke="#f0f0f0"
     id="rect25"
     style="display:inline" />
  <rect
     x="306"
     y="404.5"
     width="39"
     height="39"
     rx="7.5"
     stroke="#f0f0f0"
     id="rect27"
     style="display:inline" />
  <rect
     x="76"
     y="450.5"
     width="39"
     height="39"
     rx="7.5"
     stroke="#f0f0f0"
     id="rect31"
     style="display:inline" />
  <rect
     x="122"
     y="450.5"
     width="39"
     height="39"
     rx="7.5"
     stroke="#f0f0f0"
     id="rect33"
     style="display:inline" />
  <rect
     x="168"
     y="450.5"
     width="39"
     height="39"
     rx="7.5"
     stroke="#f0f0f0"
     id="rect35"
     style="display:inline" />
  <rect
     x="214"
     y="450.5"
     width="39"
     height="39"
     rx="7.5"
     stroke="#f0f0f0"
     id="rect37"
     style="display:inline" />
</svg>
